HIERARCHY
ROOT Hips
{
	OFFSET -3.958830 18.904000 13.208200
	CHANNELS 6 Xposition Yposition Zposition Zrotation Yrotation Xrotation 
	JOINT LHipJoint
	{
		OFFSET 0.000000 0.000000 0.000000
		CHANNELS 3 Zrotation Yrotation Xrotation
		JOINT LeftUpLeg
		{
			OFFSET 1.800000 -1.400000 0.085000
			CHANNELS 3 Zrotation Yrotation Xrotation
			JOINT LeftLeg
			{
				OFFSET 2.215000 -6.000000 0.000000
				CHANNELS 3 Zrotation Yrotation Xrotation
				JOINT LeftFoot
				{
					OFFSET 2.500000 -6.900000 0.000000
					CHANNELS 3 Zrotation Yrotation Xrotation
					JOINT LeftToeBase
					{
						OFFSET 0.200000 -0.500000 1.950000
						CHANNELS 3 Zrotation Yrotation Xrotation
						End Site
						{
							OFFSET 0.000000 0.000000 0.000000
						}
					}
				}
			}
		}
	}
	JOINT RHipJoint
	{
		OFFSET 0.000000 0.000000 0.000000
		CHANNELS 3 Zrotation Yrotation Xrotation
		JOINT RightUpLeg
		{
			OFFSET -1.800000 -1.400000 0.085000
			CHANNELS 3 Zrotation Yrotation Xrotation
			JOINT RightLeg
			{
				OFFSET -2.215000 -6.000000 0.000000
				CHANNELS 3 Zrotation Yrotation Xrotation
				JOINT RightFoot
				{
					OFFSET -2.500000 -6.900000 0.000000
					CHANNELS 3 Zrotation Yrotation Xrotation
					JOINT RightToeBase
					{
						OFFSET -0.200000 -0.500000 1.950000
						CHANNELS 3 Zrotation Yrotation Xrotation
						End Site
						{
							OFFSET 0.000000 0.000000 0.000000
						}
					}
				}
			}
		}
	}
	JOINT LowerBack
	{
		OFFSET 0.000000 0.000000 0.000000
		CHANNELS 3 Zrotation Yrotation Xrotation
		JOINT Spine
		{
			OFFSET -0.087000 1.940000 -0.288900
			CHANNELS 3 Zrotation Yrotation Xrotation
			JOINT Spine1
			{
				OFFSET 0.000000 1.950000 0.060000
				CHANNELS 3 Zrotation Yrotation Xrotation
				JOINT Neck
				{
					OFFSET 0.000000 0.000000 0.000000
					CHANNELS 3 Zrotation Yrotation Xrotation
					JOINT Neck1
					{
						OFFSET 0.000000 1.600000 0.340000
						CHANNELS 3 Zrotation Yrotation Xrotation
						JOINT Head
						{
							OFFSET 0.000000 1.667000 -0.240000
							CHANNELS 3 Zrotation Yrotation Xrotation
							End Site
							{
								OFFSET 0.000000 0.000000 0.000000
							}
						}
					}
				}
				JOINT LeftShoulder
				{
					OFFSET 0.000000 0.000000 0.000000
					CHANNELS 3 Zrotation Yrotation Xrotation
					JOINT LeftArm
					{
						OFFSET 2.700000 1.550000 -0.730000
						CHANNELS 3 Zrotation Yrotation Xrotation
						JOINT LeftForeArm
						{
							OFFSET 5.450000 0.000000 0.000000
							CHANNELS 3 Zrotation Yrotation Xrotation
							JOINT LeftHand
							{
								OFFSET 3.450000 0.000000 0.000000
								CHANNELS 3 Zrotation Yrotation Xrotation
								JOINT LeftHandIndex1
								{
									OFFSET 0.750000 0.000000 0.000000
									CHANNELS 3 Zrotation Yrotation Xrotation
									End Site
									{
										OFFSET 0.000000 0.000000 0.000000
									}
								}
							}
						}
					}
				}
				JOINT RightShoulder
				{
					OFFSET 0.000000 0.000000 0.000000
					CHANNELS 3 Zrotation Yrotation Xrotation
					JOINT RightArm
					{
						OFFSET -2.700000 1.550000 -0.730000
						CHANNELS 3 Zrotation Yrotation Xrotation
						JOINT RightForeArm
						{
							OFFSET -5.450000 0.000000 0.000000
							CHANNELS 3 Zrotation Yrotation Xrotation
							JOINT RightHand
							{
								OFFSET -3.450000 0.000000 0.000000
								CHANNELS 3 Zrotation Yrotation Xrotation
								JOINT RightHandIndex1
								{
									OFFSET -0.750000 0.000000 0.000000
									CHANNELS 3 Zrotation Yrotation Xrotation
									End Site
									{
										OFFSET 0.000000 0.000000 0.000000
									}
								}
							}
						}
					}
				}
			}
		}
	}
}
MOTION
Frames: 8
Frame Time: 0.016667
-0.920010 16.944730 -2.482200 -6.117343 -16.930847 -6.501814 -15.600903 14.304654 3.411811 10.005545 0.522016 -10.164544 -7.713384 4.590160 0.887348 -0.236113 4.293680 3.289603 -0.372530 -0.392550 -0.797530 17.742867 -9.701596 3.230209 1.795528 -1.483322 5.092488 9.648571 -5.979220 8.448310 -0.450526 -4.414803 3.083070 -0.183780 0.818260 -0.013180 -1.941067 -5.211395 -8.514885 12.693805 -1.590865 28.885464 -14.378038 3.742264 -7.141196 17.937860 -15.956856 -13.481914 -36.888420 9.427181 37.400889 4.433620 -6.580680 -6.403220 -18.696469 6.594708 -4.494847 -65.801046 0.483202 -7.977605 -1.527326 -15.547379 -2.231954 -3.869783 2.463471 0.477980 0.100570 -0.162250 0.316960 -15.605809 17.188386 7.821353 -33.567528 -0.042861 -12.116642 -110.665544 -29.251219 35.993885 3.039540 -1.308850 -0.450770 0.684350 0.500650 0.269890 
-0.919780 16.957280 -2.476470 -5.859735 -16.922870 -6.996887 -15.632702 14.412959 3.402708 9.861453 0.581782 -9.918260 -7.592131 4.648018 1.248501 -0.219843 4.270770 3.277354 -0.352650 -0.357110 -0.787690 17.707685 -9.641675 3.222674 1.495036 -1.573882 5.660686 9.387353 -5.941719 8.184176 -0.487614 -4.398824 3.078727 -0.183170 0.773520 -0.013330 -1.842633 -5.501617 -8.521535 12.191018 -1.726380 29.792474 -14.402888 3.619440 -8.374579 18.111518 -15.911229 -13.679203 -38.030250 10.125706 38.703168 4.589700 -6.601140 -7.632670 -18.419315 7.122983 -4.639586 -66.012109 0.808325 -7.756189 -1.289561 -14.596967 -2.124209 -3.837499 2.450672 0.506420 0.059470 -0.117460 0.314400 -16.011075 16.993021 7.961140 -32.907217 -0.225277 -11.941582 -112.573436 -29.643158 37.875396 3.055324 -1.291956 -0.426650 0.679060 0.489760 0.273070 
-0.921250 16.969550 -2.454110 -5.728208 -17.300085 -7.332628 -15.637706 14.498654 3.366156 9.769633 0.627314 -9.644509 -7.195602 4.684143 1.813508 -0.235820 4.228799 3.263882 -0.317600 -0.314680 -0.778840 17.698149 -9.626907 3.220076 1.196678 -1.686475 6.164792 8.863705 -5.856231 7.838634 -0.527400 -4.379702 3.068507 -0.173850 0.733850 -0.011480 -1.809175 -5.668862 -8.491951 12.146552 -1.682963 29.903107 -14.114784 3.576562 -9.358245 17.921520 -15.904400 -14.018946 -39.809184 11.726015 39.624884 5.868470 -6.197150 -8.621240 -17.667945 7.288538 -4.355524 -67.320183 1.084705 -7.418785 -0.520269 -13.107353 -2.070336 -3.802200 2.455716 0.555530 0.014100 -0.077080 0.317190 -16.125622 16.911457 8.044648 -32.916149 -0.456550 -11.570067 -113.716125 -30.235897 39.929781 3.050760 -1.269072 -0.411510 0.668110 0.480980 0.269910 
-0.919240 16.958970 -2.434850 -5.921500 -16.309896 -7.177704 -15.519416 14.510940 3.290480 9.452568 0.440344 -10.628072 -6.034394 4.596704 3.054528 -0.312324 4.047289 3.315346 -0.352730 -0.394090 -0.768710 17.773432 -9.821103 3.284094 1.153849 -1.744196 5.878729 8.281775 -5.762105 7.712115 -0.513459 -4.317359 3.080657 -0.213710 0.731730 -0.035920 -2.083764 -5.358738 -8.414104 13.635724 -2.142632 29.153971 -15.260004 3.421667 -10.203040 17.275702 -15.077207 -14.908389 -39.458102 12.951370 42.339975 7.766870 -6.545380 -6.415180 -17.211253 5.585753 -2.872724 -66.139484 2.489860 -7.752994 -2.382312 -13.874861 -1.930719 -3.769500 2.451513 0.595330 -0.004780 -0.088980 0.290340 -15.195139 17.554716 8.548483 -32.736805 -3.138172 -10.483833 -111.439716 -30.595913 39.920236 3.070669 -1.214287 -0.446660 0.669380 0.505970 0.239320 
-0.918220 16.956230 -2.419700 -6.417818 -16.262574 -7.196038 -15.569983 14.718946 3.251265 9.820239 0.435094 -11.554717 -5.576441 4.732915 4.495508 -0.361319 4.079040 3.292111 -0.380380 -0.463610 -0.759810 17.714900 -9.706680 3.279405 1.713666 -1.803578 5.947195 7.734576 -5.737477 8.215909 -0.503833 -4.261958 3.080871 -0.244470 0.738400 -0.034780 -1.920358 -5.876371 -8.423865 13.895643 -2.109910 29.886074 -14.416082 3.985400 -11.927826 17.336225 -14.810472 -15.262437 -40.286190 13.926843 43.247765 7.895760 -6.763630 -5.386580 -17.180728 5.873631 -2.595317 -66.460151 3.618358 -7.749016 -3.484798 -14.119772 -1.862119 -3.775741 2.427044 0.632430 -0.012980 -0.096070 0.268620 -14.951989 17.402107 8.659246 -33.019561 -4.344208 -9.734401 -105.116110 -31.018133 36.926290 3.041557 -1.183014 -0.474890 0.676580 0.538910 0.215940 
-0.914860 16.956640 -2.417850 -6.384702 -16.843353 -7.795897 -15.576153 14.883757 3.181668 9.880431 0.383813 -12.055437 -5.171677 4.943586 6.654970 -0.424493 4.122266 3.252857 -0.386470 -0.499830 -0.726510 17.690348 -9.713668 3.257318 1.602267 -1.847497 6.090166 7.337009 -5.841837 9.192753 -0.504685 -4.267665 3.059249 -0.251650 0.716190 -0.039590 -1.849293 -6.137546 -8.369571 13.827321 -2.197000 30.907665 -14.546823 4.321934 -12.729327 17.599702 -14.489000 -15.335297 -40.684491 14.683536 43.975628 7.222490 -6.636540 -5.367230 -16.750105 6.572753 -2.778022 -66.441769 3.953475 -7.697311 -4.420771 -14.367179 -1.802180 -3.778518 2.398061 0.671700 -0.027830 -0.092390 0.237780 -15.740896 16.577221 8.736159 -31.893261 -5.456346 -9.517663 -98.082528 -32.217836 33.803367 3.081901 -1.156960 -0.499610 0.683150 0.560940 0.180100 
-0.901080 16.963450 -2.410830 -6.968115 -17.633239 -8.223962 -15.649709 15.151068 3.137479 10.356010 0.340994 -12.861766 -4.949065 5.221997 8.953006 -0.441192 4.246848 3.173436 -0.385200 -0.533760 -0.697420 17.613030 -9.530520 3.255082 2.202863 -2.013098 6.610376 7.025147 -5.921218 9.855283 -0.526138 -4.276420 3.030188 -0.275490 0.685100 -0.008860 -1.608483 -6.901648 -8.373231 14.339443 -2.570797 32.580118 -14.646825 4.877149 -14.828112 18.655675 -14.021037 -15.867945 -41.835135 16.005515 45.093517 5.945720 -6.595580 -4.401070 -16.425566 7.557612 -2.943395 -66.975733 4.964336 -7.666669 -5.174269 -14.818553 -1.756342 -3.777852 2.402483 0.700880 -0.039770 -0.072890 0.215490 -17.479903 16.096282 9.150122 -30.897028 -6.683701 -9.067498 -88.777094 -32.515504 28.860962 3.161688 -1.144165 -0.487890 0.653170 0.577420 0.157590 
-0.890170 16.979000 -2.385950 -8.043552 -18.887714 -7.927726 -15.816096 15.520357 3.116439 11.219787 0.297518 -14.425932 -4.869192 5.612858 11.446544 -0.399170 4.439254 3.078496 -0.462920 -0.617950 -0.767350 17.470834 -9.135023 3.242195 3.687925 -2.271516 6.915709 6.475980 -5.823761 10.353810 -0.483308 -4.214933 3.048251 -0.322860 0.715300 -0.028560 -1.142141 -8.229929 -8.406735 14.803215 -2.964452 34.664120 -13.763920 5.994191 -18.897827 20.177801 -14.099306 -16.589912 -45.620367 18.179003 43.785606 5.411210 -7.248590 -1.428080 -14.037427 11.595501 -3.586469 -70.760918 7.111968 -7.862175 -5.631412 -15.743483 -1.727499 -3.816706 2.360198 0.662680 -0.031910 -0.112050 0.196930 -21.345043 14.357443 9.585757 -28.821138 -6.315718 -8.606414 -79.865497 -30.698508 22.771071 3.326490 -1.135793 -0.493860 0.649780 0.624420 0.180800 
